<?xml version="1.0" ?><!DOCTYPE svg  PUBLIC '-//W3C//DTD SVG 1.1//EN'  'http://www.w3.org/Graphics/SVG/1.1/DTD/svg11.dtd'><svg enable-background="new 0 0 38.621 39.092" height="39.092px" id="Layer_1" version="1.1" viewBox="0 0 38.621 39.092" width="38.621px" xml:space="preserve" xmlns="http://www.w3.org/2000/svg" xmlns:xlink="http://www.w3.org/1999/xlink"><g><g><g><path d="M35.318,22.699c-0.196,0-0.392-0.076-0.539-0.228c-0.289-0.298-0.281-0.772,0.017-1.061     c1.74-1.685,1.74-1.685,0.274-3.246c-0.613-0.652-0.729-1.718-0.27-2.479l2.293-3.799c0.014-0.023,0.036-0.067,0.024-0.103     c-0.012-0.036-0.056-0.06-0.081-0.07l-3.889-1.671c-0.477-0.205-1.108-0.548-1.086-1.166c0.006-0.181,0.1-0.371,0.234-0.518     c0-0.09-0.012-0.239-0.059-0.438l-0.15-0.666c-0.248-1.131-0.505-2.3-1.108-2.833c-0.712-0.63-2.288-0.615-3.554-0.603     c-0.008,0-0.016,0-0.024,0c-0.69,0-1.642-0.309-2.226-0.725c-1.776-1.263-2.815-1.729-3.492-1.563     c-0.548,0.137-1.079,0.774-1.721,2.063c-0.417,0.838-1.37,1.164-2.266,0.771c-1.658-0.722-2.631,0.374-4.036,2.266     c-0.247,0.333-0.716,0.403-1.049,0.155c-0.333-0.247-0.402-0.716-0.155-1.049c1.252-1.689,2.969-3.999,5.84-2.748     c0.158,0.069,0.267,0.047,0.324-0.065c0.611-1.228,1.41-2.526,2.699-2.85c1.358-0.334,2.868,0.474,4.726,1.795     c0.332,0.236,0.973,0.447,1.354,0.447c0.003,0,0.007,0,0.011,0c1.6-0.015,3.419-0.033,4.563,0.979     c0.969,0.856,1.28,2.269,1.58,3.634l0.145,0.645c0.1,0.425,0.125,0.796,0.076,1.101l3.855,1.657     c0.441,0.189,0.775,0.55,0.917,0.989s0.08,0.927-0.168,1.337l-2.293,3.799c-0.11,0.182-0.071,0.519,0.079,0.678     c2.248,2.395,1.945,3.152-0.324,5.35C35.694,22.629,35.506,22.699,35.318,22.699z"/></g></g><g><g><path d="M30.627,33.987c-0.394,0-0.786-0.111-1.11-0.339l-2.001-1.408c-0.17-0.119-0.492-0.099-0.663,0.043     c-1.663,1.38-2.813,1.863-3.844,1.61c-1.196-0.292-1.86-1.542-2.305-2.598c-0.108-0.256-0.444-0.512-0.679-0.516     c-0.294-0.005-0.585-0.005-0.872-0.005c-1.393-0.001-2.708-0.002-3.875-0.526c-2.078-0.931-1.563-3.083-1.223-4.506     c0.045-0.188,0.089-0.372,0.127-0.551c0.088-0.405,0.488-0.66,0.891-0.576c0.405,0.087,0.663,0.486,0.576,0.891     c-0.041,0.19-0.088,0.385-0.135,0.584c-0.418,1.746-0.424,2.429,0.377,2.788c0.875,0.393,1.981,0.394,3.263,0.395     c0.294,0,0.594,0,0.896,0.005c0.822,0.015,1.697,0.631,2.036,1.434c0.445,1.058,0.863,1.622,1.277,1.723     c0.491,0.116,1.341-0.319,2.531-1.308c0.693-0.576,1.759-0.625,2.483-0.117l2.002,1.408c0.157,0.112,0.442,0.086,0.585-0.05     c0.384-0.367,0.768-0.723,1.145-1.073c1.3-1.205,2.527-2.343,3.451-3.649c0.567-0.803,0.774-1.549,0.614-2.218     c-0.172-0.722-0.801-1.388-1.819-1.928c-0.128-0.067-0.401,0.004-0.519,0.171l-3.325,4.732c-0.465,0.662-1.478,1.205-2.367,0.969     c-0.673-0.18-1.34-0.482-1.985-0.776c-1.707-0.775-3.317-1.507-5.255-0.26c-0.805,0.52-1.844,0.371-2.417-0.343l-3.23-4.031     c-0.259-0.323-0.207-0.795,0.117-1.054c0.323-0.258,0.794-0.206,1.054,0.117l3.23,4.031c0.103,0.129,0.301,0.106,0.434,0.02     c2.625-1.689,4.877-0.667,6.688,0.156c0.617,0.28,1.199,0.544,1.75,0.691c0.173,0.044,0.583-0.139,0.755-0.382l3.325-4.731     c0.546-0.776,1.644-1.062,2.449-0.635c1.41,0.747,2.3,1.751,2.575,2.904c0.26,1.091-0.033,2.278-0.848,3.432     c-1.014,1.434-2.297,2.624-3.656,3.884c-0.372,0.345-0.75,0.695-1.129,1.057C31.633,33.806,31.129,33.987,30.627,33.987z"/></g></g><g><g><path d="M13.018,15.413c-0.693,0-1.301-0.062-1.694-0.149c-3.163-0.703-3.335-4.065-3.4-5.331     C7.886,9.181,9.189,7.97,9.454,7.835c0.562-0.287,1.414-0.629,2.323-0.305c0.958,0.344,1.733,1.331,2.59,3.301     c0.024,0.055,0.041,0.112,0.051,0.169c0.551-0.464,1.134-0.88,1.819-0.802c0.432,0.051,0.804,0.291,1.107,0.711     c0.975,1.353,0.731,2.318,0.355,2.89C16.876,15.049,14.697,15.413,13.018,15.413z M9.43,10c0.145,2.378,0.792,3.482,2.219,3.799     c1.254,0.277,4.202,0.078,4.797-0.825c0.17-0.258,0.063-0.658-0.319-1.188c-0.062-0.086-0.099-0.107-0.099-0.107     c-0.127,0.023-0.578,0.409-0.846,0.64c-0.604,0.519-1.287,1.106-2.122,1.106c-0.414,0-0.75-0.336-0.75-0.75s0.336-0.75,0.75-0.75     c0.087,0,0.196-0.042,0.315-0.109c-0.166-0.074-0.306-0.207-0.384-0.387c-0.649-1.492-1.212-2.305-1.721-2.488     c-0.172-0.063-0.479-0.106-1.135,0.229C10.017,9.262,9.579,9.76,9.43,10z"/></g></g><g><g><path d="M20.479,18.372c-0.346,0-0.658-0.241-0.732-0.594c-0.664-3.118-0.111-6.106,0.423-8.996     c0.161-0.872,0.324-1.751,0.457-2.645c0.133-0.9,0.923-1.613,1.836-1.658l0.33-0.018c0.815-0.043,1.521-0.084,2.209,0.113     c2.563,0.732,5.333,1.944,6.439,5.383c0.8,2.49,1.367,5.105-1.2,7.306c-0.314,0.27-0.788,0.234-1.058-0.081     c-0.27-0.314-0.233-0.788,0.081-1.058c1.712-1.468,1.595-3.074,0.749-5.708c-0.838-2.606-2.775-3.644-5.424-4.4     c-0.445-0.126-1.005-0.096-1.715-0.058l-0.337,0.018c-0.196,0.01-0.399,0.191-0.428,0.38c-0.135,0.912-0.301,1.808-0.465,2.697     c-0.531,2.872-1.033,5.584-0.432,8.411c0.086,0.405-0.172,0.804-0.577,0.89C20.583,18.367,20.53,18.372,20.479,18.372z"/></g></g><g><g><path d="M26.137,26.246c-0.233,0-0.464-0.037-0.681-0.116c-0.351-0.127-0.692-0.258-1.024-0.454     c-2.361-1.394-3.275-3.953-2.126-5.952c1.237-2.152,3.059-2.802,5.268-1.878c2.504,1.045,3.592,2.978,3.232,5.746     c-0.053,0.411-0.433,0.698-0.84,0.647c-0.411-0.053-0.701-0.43-0.647-0.84c0.272-2.099-0.444-3.384-2.323-4.168     c-1.513-0.632-2.525-0.26-3.389,1.241c-0.728,1.267-0.045,2.949,1.588,3.913c0.2,0.118,0.435,0.213,0.773,0.335     c0.211,0.077,0.565-0.022,0.71-0.202l0.628-0.781c0.148-0.184,0.186-0.573,0.071-0.744c-0.43-0.64-0.8-0.977-1.101-1.001     c-0.303-0.025-0.736,0.252-1.23,0.779c-0.285,0.303-0.759,0.317-1.06,0.035c-0.302-0.283-0.318-0.758-0.035-1.06     c0.848-0.905,1.65-1.309,2.446-1.249c1.053,0.085,1.774,0.988,2.225,1.66c0.48,0.715,0.415,1.822-0.148,2.521l-0.627,0.779     C27.445,25.958,26.784,26.246,26.137,26.246z"/></g></g><g><g><path d="M11.713,24.246c-2.661,0-4.559-1.313-5.494-3.803c-0.286-0.761-0.063-1.786,0.264-2.417     c1.209-2.328,0.145-4.168-1.089-6.299C4.7,10.528,3.982,9.288,3.656,7.894C3.49,7.186,3.613,6.062,4.105,5.406     C4.926,4.313,6.14,4.083,7.436,4.772c0.323,0.172,0.781,0.218,0.999,0.102l1.269-0.672c0.763-0.405,1.829-0.284,2.483,0.281     l2.086,1.8c0.118,0.101,0.217,0.174,0.292,0.225c0.344-0.07,0.808,0.016,1.39,0.252l4.498,1.82     c0.384,0.155,0.569,0.592,0.414,0.977c-0.155,0.384-0.589,0.569-0.977,0.414l-4.499-1.82C15.187,8.067,15.021,8.021,14.916,8     c-0.055,0.026-0.111,0.046-0.167,0.057C14.59,8.09,14.17,8.176,13.292,7.418l-2.086-1.8c-0.183-0.157-0.586-0.203-0.801-0.09     L9.138,6.2C8.372,6.605,7.376,6.44,6.73,6.096C5.931,5.67,5.562,5.963,5.305,6.306C5.131,6.538,5.032,7.19,5.117,7.552     c0.275,1.178,0.907,2.269,1.576,3.424c1.271,2.196,2.71,4.685,1.122,7.742c-0.194,0.375-0.285,0.946-0.19,1.198     c0.737,1.962,2.07,2.859,4.19,2.829c0.454-0.012,0.755,0.325,0.761,0.739c0.006,0.414-0.325,0.755-0.739,0.761     C11.795,24.246,11.754,24.246,11.713,24.246z"/></g></g><g><g><path d="M10.938,39.092c-0.378,0-0.753-0.147-1.056-0.421L3.15,32.583c-0.359-0.325-0.557-0.775-0.544-1.237     c0.013-0.46,0.234-0.899,0.609-1.202l8.37-6.8c0.618-0.5,1.658-0.709,2.418-0.489l0.17,0.05c0.277,0.083,0.776-0.027,0.98-0.216     c0.938-0.871,1.832-1.846,2.697-2.79c2.001-2.184,4.071-4.441,6.964-5.776c0.719-0.331,1.815-0.321,2.496,0.022     c2.737,1.38,3.968,3.887,5.158,6.311c0.24,0.488,0.479,0.976,0.731,1.453c0.193,0.367,0.053,0.82-0.313,1.014     c-0.366,0.191-0.819,0.052-1.014-0.313c-0.258-0.49-0.504-0.991-0.75-1.492c-1.131-2.304-2.199-4.479-4.487-5.633     c-0.276-0.139-0.89-0.139-1.192,0.001c-2.62,1.208-4.499,3.257-6.487,5.427c-0.885,0.965-1.799,1.963-2.782,2.875     c-0.59,0.548-1.632,0.788-2.427,0.555l-0.162-0.048c-0.293-0.085-0.817,0.019-1.055,0.213l-8.37,6.8l-0.507,0.719l0.503-0.556     l6.732,6.088l1.883-3.277l2.416-4.349c0.202-0.362,0.658-0.493,1.02-0.292s0.493,0.658,0.292,1.02l-4.23,7.615     c-0.24,0.431-0.638,0.721-1.093,0.797C11.097,39.085,11.017,39.092,10.938,39.092z"/></g></g><g><g><path d="M27.033,13.299c-0.712,0-1.579-0.298-2.591-0.892c-0.496-0.291-0.986-0.542-1.472-0.791     c-0.64-0.328-1.301-0.667-1.966-1.09c-0.349-0.223-0.452-0.686-0.23-1.036c0.223-0.35,0.687-0.452,1.036-0.23     c0.606,0.386,1.208,0.694,1.845,1.021c0.511,0.262,1.026,0.526,1.547,0.832c1.079,0.633,1.832,0.775,2.077,0.639     c0.122-0.068,0.2-0.328,0.208-0.696c0.013-0.564-0.212-1.078-0.633-1.445c-0.581-0.506-1.484-0.692-2.545-0.522     c-0.408,0.061-0.793-0.213-0.859-0.623c-0.065-0.409,0.213-0.793,0.623-0.859c1.506-0.241,2.845,0.069,3.767,0.874     c0.751,0.655,1.169,1.605,1.147,2.608c-0.026,1.195-0.546,1.732-0.977,1.973C27.726,13.22,27.4,13.299,27.033,13.299z"/></g></g><g><g><path d="M3.787,15.281c-0.161,0-0.323-0.051-0.459-0.158L1.03,13.342c-0.517-0.4-1.096-1.101-1.024-1.759     c0.075-0.692,0.846-1.207,1.484-1.437l2.662-0.957C4.541,9.047,4.971,9.25,5.111,9.641C5.252,10.03,5.049,10.46,4.66,10.6     l-2.662,0.958c-0.181,0.065-0.322,0.149-0.417,0.219c0.078,0.11,0.204,0.252,0.368,0.379l2.298,1.783     c0.327,0.254,0.386,0.725,0.132,1.052C4.231,15.182,4.01,15.281,3.787,15.281z"/></g></g><g><g><path d="M6.261,20.228c-0.056,0-0.113-0.006-0.171-0.02c-2.22-0.518-3.436-1.97-3.253-3.884c0.075-0.79,0.876-1.235,1.65-1.665     C4.743,14.517,5,14.377,5.206,14.23c0.336-0.242,0.806-0.163,1.046,0.174c0.241,0.337,0.163,0.805-0.174,1.046     c-0.247,0.177-0.554,0.349-0.862,0.521c-0.286,0.159-0.752,0.417-0.892,0.571c-0.074,1.121,0.634,1.862,2.106,2.206     c0.403,0.094,0.654,0.498,0.56,0.901C6.91,19.994,6.602,20.228,6.261,20.228z"/></g></g><g><g><path d="M14.298,18.372c-0.275,0-0.54-0.152-0.671-0.415c-0.185-0.37-0.035-0.821,0.335-1.006l5.565-2.782     c0.37-0.185,0.821-0.035,1.006,0.336c0.185,0.37,0.035,0.821-0.336,1.006l-5.564,2.782     C14.525,18.347,14.411,18.372,14.298,18.372z"/></g></g><g><g><path d="M13.06,23.937c-0.128,0-0.259-0.033-0.377-0.102c-0.358-0.209-0.479-0.668-0.27-1.026     c1.176-2.015,1.518-3.288,0.124-4.65c-0.296-0.289-0.301-0.764-0.012-1.061c0.289-0.295,0.765-0.302,1.061-0.012     c2.486,2.43,0.949,5.063,0.124,6.479C13.569,23.803,13.318,23.937,13.06,23.937z"/></g></g></g></svg>